# xmcd
#
# Track frame offsets:
#	150
#	20590
#	34360
#	67300
#	81810
#	92780
#	103050
#	124850
#	140795
#	164880
#
# Disc length: 2427 seconds
# Revision: 0
# Processed by: cddbd v1.5.2PL0 Copyright (c) Steve Scherf et al.
# Submitted via: dBpowerAMP V12.0
#
DISCID=9a09790a
DTITLE=Phillip Dale Durham - Everything I Need
DYEAR=2001
DGENRE=Blues
TTITLE0=Precarious Situation
TTITLE1=I Love The  Ladies
TTITLE2=Just A Little Too Long
TTITLE3=Everything I Need
TTITLE4=No Matter What I Try To Do
TTITLE5=My Baby Calls Me Honey
TTITLE6=Up And Out The Door
TTITLE7=See Ya
TTITLE8=My Ole Lady's Got A Gun
TTITLE9=I Don't Want To Go Insane
EXTD=
EXTT0=
EXTT1=
EXTT2=
EXTT3=
EXTT4=
EXTT5=
EXTT6=
EXTT7=
EXTT8=
EXTT9=
PLAYORDER=
